HIERARCHY
ROOT Hips
{
	OFFSET 0.00000 0.00000 0.00000
	CHANNELS 6 Xposition Yposition Zposition Yrotation Zrotation Xrotation 
	JOINT Lumbar
	{
		OFFSET 0 0 0
		CHANNELS 3 Zrotation Xrotation Yrotation
		JOINT Neck
		{
			OFFSET 0.00 0.2701 0.00
			CHANNELS 3 Zrotation Xrotation Yrotation
			End Site
			{
				OFFSET 0.00 0.1379 0.00
			}
		}
		JOINT RightShoulder
		{
			OFFSET 0.0119 0.2289 0.1181
			CHANNELS 3 Zrotation Xrotation Yrotation
			JOINT RightElbow
			{
				OFFSET 0.00 -0.1475 0.00
				CHANNELS 2 Zrotation Yrotation
				JOINT RightWrist
				{
					OFFSET 0.00 -0.1605 0.00
					CHANNELS 2 Zrotation Xrotation
					End Site
					{
						OFFSET 0.0040 -0.1068 0.0006
					}
				}
			}
		}
		JOINT LeftShoulder
		{
			OFFSET 0.0119 0.2289 -0.1181
			CHANNELS 3 Zrotation Xrotation Yrotation
			JOINT LeftElbow
			{
				OFFSET 0.00 -0.1475 0.00
				CHANNELS 2 Zrotation Yrotation
				JOINT LeftWrist
				{
					OFFSET 0.00 -0.1605 0.00
					CHANNELS 2 Zrotation Xrotation
					End Site
					{
						OFFSET 0.0040 -0.1068 -0.0006
					}
				}
			}
		}
	}
	JOINT RightHip
	{
		OFFSET 0.0316 -0.0424 0.0458
		CHANNELS 3 Zrotation Xrotation Yrotation
		JOINT RightKnee
		{
			OFFSET 0.00 -0.2438 0.00
			CHANNELS 1 Zrotation
			JOINT RightAnkle
			{
				OFFSET 0.00 -0.2449 0.00
				CHANNELS 3 Zrotation Xrotation Yrotation
				End Site
				{
					OFFSET 0.1237 -0.0542 0.0051
				}
			}
		}
	}
	JOINT LeftHip
	{
		OFFSET 0.0316 -0.0424 -0.0458
		CHANNELS 3 Zrotation Xrotation Yrotation
		JOINT LeftKnee
		{
			OFFSET 0.00 -0.2438 0.00
			CHANNELS 1 Zrotation
			JOINT LeftAnkle
			{
				OFFSET 0.00 -0.2449 0.00
				CHANNELS 3 Zrotation Xrotation Yrotation
				End Site
				{
					OFFSET 0.1237 -0.0542 -0.0051
				}
			}
		}
	}
}
MOTION
Frames: 11
Frame Time: 0.02
0.92649 0.18311 -0.2911 42.37576 -58.98109 -18.0957 -11.5402 3.90677 5.77844 -31.13612 -11.42091 -0.83079 112.27564 1.1574 -88.61153 5.49259 82.86952 0.60091 -1.07036 102.73677 14.75956 -54.31199 20.9939 -80.36859 -7.96015 1.23443 84.74127 2.10485 -9.86841 -30.76822 -7.07132 -4.16116 -2.88135 82.58434 7.59897 3.75493 -30.03131 -7.08308 2.46411 1.91805
0.92705 0.18327 -0.29143 42.49245 -58.94866 -18.05911 -11.5699 3.94188 5.58162 -30.96721 -11.78093 -0.83079 112.39118 1.45851 -91.08556 5.20286 85.28025 1.44167 -0.46007 102.77059 14.81287 -54.77131 21.13531 -80.38737 -8.53788 1.18446 84.62212 2.09493 -9.9151 -30.76431 -7.07888 -4.1871 -2.89155 82.45413 7.59056 3.74936 -29.97252 -7.08487 2.45561 1.91191
0.9277 0.18348 -0.29185 42.63065 -58.91632 -18.03239 -11.60343 3.99773 5.39354 -30.7834 -12.15922 -0.83079 111.94321 1.61225 -89.55852 5.38005 87.48329 1.94076 0.50809 102.74984 14.85675 -55.08986 21.29616 -80.42663 -9.08894 1.18943 84.47115 2.06882 -10.05514 -30.73233 -7.08287 -4.2128 -2.8983 82.2996 7.57786 3.70961 -29.88456 -7.08655 2.45087 1.90796
0.92831 0.18366 -0.29224 42.7529 -58.8878 -18.00482 -11.62997 4.0399 5.20666 -30.5956 -12.5241 -0.83079 111.76052 1.84458 -90.02089 5.32643 89.61503 2.52169 1.26233 102.74911 14.90416 -55.43807 21.4447 -80.46314 -9.59368 1.17975 84.33728 2.05206 -10.15538 -30.71055 -7.08743 -4.23712 -2.90588 82.15954 7.56903 3.68403 -29.80906 -7.08798 2.445 1.90344
0.9289 0.18383 -0.2926 42.90173 -58.84312 -17.96191 -11.67854 4.10009 4.99636 -30.45218 -12.91272 -0.83079 111.57084 2.03769 -90.15779 5.31813 92.45802 3.4099 2.20436 102.76922 14.95563 -55.93219 21.60913 -80.47299 -10.34145 1.12704 84.1933 2.02754 -10.24072 -30.70075 -7.09662 -4.26818 -2.91687 82.0059 7.55257 3.66695 -29.73798 -7.09063 2.43629 1.89691
0.92957 0.18405 -0.29304 43.00011 -58.83188 -17.95313 -11.68271 4.12755 4.83761 -30.21318 -13.25536 -0.83079 111.24854 2.2709 -89.7708 5.33905 93.80417 3.5947 2.85765 102.73277 14.99609 -56.09174 21.74445 -80.54178 -10.58411 1.17534 84.06184 2.01488 -10.38175 -30.65872 -7.09526 -4.28479 -2.91976 81.8738 7.55058 3.6221 -29.64998 -7.09076 2.43462 1.89523
0.93048 0.18438 -0.29367 42.95416 -58.91561 -18.03826 -11.55688 4.06085 4.81816 -29.71397 -13.46673 -0.83079 110.71207 2.68673 -90.18313 5.3274 90.58015 1.70947 2.54523 102.55316 15.0081 -55.32324 21.79637 -80.78143 -9.36351 1.50728 83.97998 2.04179 -10.63982 -30.53639 -7.06578 -4.2641 -2.9021 81.81525 7.59239 3.52019 -29.52675 -7.08339 2.45018 1.90572
0.93148 0.18476 -0.29438 42.85671 -59.03265 -18.15706 -11.38734 3.9604 4.85073 -29.11927 -13.63068 -0.83079 110.05509 3.14114 -89.96218 5.33369 85.93164 -0.83795 1.94654 102.31874 15.00924 -54.22998 21.81772 -81.07734 -7.64877 1.93588 83.91053 2.08085 -10.95267 -30.38203 -7.02583 -4.22854 -2.87627 81.77776 7.64843 3.3895 -29.38653 -7.07359 2.47292 1.92111
0.93244 0.18512 -0.29507 42.78246 -59.13258 -18.25906 -11.24205 3.87438 4.86026 -28.56837 -13.81613 -0.83079 109.43894 3.55251 -89.11818 5.3358 82.25772 -2.94192 1.53685 102.10918 15.01549 -53.30942 21.85193 -81.33883 -6.2093 2.3083 83.83044 2.11208 -11.25122 -30.24104 -6.99048 -4.19791 -2.85341 81.72518 7.69598 3.26391 -29.25121 -7.06526 2.49332 1.93475
0.93336 0.18547 -0.29572 42.70932 -59.2403 -18.3676 -11.07857 3.79234 4.86733 -28.01505 -14.00316 -0.83079 108.86037 4.06343 -91.85058 5.33652 77.23039 -5.64602 0.89667 101.89683 15.02087 -52.27583 21.89173 -81.63814 -4.55599 2.73378 83.76984 2.15143 -11.51242 -30.10436 -6.95541 -4.17435 -2.83324 81.69473 7.7516 3.16943 -29.12705 -7.05537 2.51012 1.9466
0.93441 0.18585 -0.29646 42.62202 -59.34036 -18.47057 -10.9423 3.69444 4.89199 -27.44449 -14.17452 -0.83079 108.18482 4.38195 -87.20342 5.33879 74.6432 -7.26949 0.65638 101.6794 15.02538 -51.4051 21.9117 -81.87211 -3.22968 3.07165 83.67263 2.17826 -11.858 -29.95113 -6.91765 -4.13334 -2.806 81.62393 7.79424 3.00552 -28.97566 -7.04817 2.53584 1.96316
